<?xml version="1.0" encoding="utf-8"?>
<!-- Generator: Adobe Illustrator 16.0.0, SVG Export Plug-In . SVG Version: 6.00 Build 0)  -->
<!DOCTYPE svg PUBLIC "-//W3C//DTD SVG 1.1//EN" "http://www.w3.org/Graphics/SVG/1.1/DTD/svg11.dtd">
<svg version="1.1" id="Layer_1" xmlns="http://www.w3.org/2000/svg" xmlns:xlink="http://www.w3.org/1999/xlink" x="0px" y="0px"
	 width="302.002px" height="92.03px" viewBox="0 0 302.002 92.03" enable-background="new 0 0 302.002 92.03" xml:space="preserve">
<g>
	<g>
		<polygon points="285.561,0.038 285.561,16.281 302.002,16.296 302.002,0.038 		"/>
		<path d="M285.578,40.015c0,0.206,0,20.819,0,23.845c0,4.664,1.105,7.965,4.605,8.347l11.682-0.013l0.137-32.133l-14.938-0.015
			C285.871,40.046,285.623,40.022,285.578,40.015z"/>
		<path d="M284.855,40.389V40.38C284.855,40.38,284.834,40.38,284.855,40.389z"/>
		<path d="M37.182,0.051c-3.931,0.047-7.099-0.182-10.552,1.733C17,7.123,16.336,19.092,16.214,28.437H0V52.17h16.201v20.076h37.703
			V52.165l18.349-0.016V28.383l-16.844,0.02c-0.871-0.275-1.202-1.059-1.202-1.894c0-1.226,1.016-2.218,2.281-2.218
			c0,0,15.617-0.018,15.764,0.013V0.033C70.588,0.033,39.86,0.019,37.182,0.051z"/>
		<path d="M122.625,46.088c0,0-1.276-1.817-2.904-4.227c-1.629-2.418-4.972-6.892-13.659-6.892c-8.679,0-13.247,8.372-13.247,17.483
			c0,9.114,3.736,19.759,3.736,19.759h23.65l5.27-8.79l17.479,8.834l0.685,0.02l5.176-0.02l-0.01-38.18L122.625,46.088z"/>
		<path d="M76.522,17.59V0h0.042h0.031h72.25l-0.019,32.382c0,0-13.751-23.517-38.643-22.809c-20.891,0-33.628,8.215-33.655,8.05
			L76.522,17.59z"/>
	</g>
	<path d="M247.857,65.672c0-2.459,0-18.61,0-25.816h-17.591l0.011-23.581h17.589V0.038l-94.668-0.022l-0.011,20.737h25.538
		c0,0-0.093-2.704,0.12-4.484c0.756-6.38,16.06-6.512,20.619-2.705c1.226,0.795,0.804,5.922,0.804,5.922
		c-8.433,3.224-21.172,5.047-30.778,7.325c-11.347,2.701-16.312,7.786-16.312,7.786l-0.013,37.584c0,0,95.763,0.024,96.447,0.03
		c0.027,0,0.075,0.001,0.129,0.001C248.543,70.981,247.857,70.073,247.857,65.672z M200.022,49.811
		c0,4.273-4.366,6.906-11.428,6.906c-6.854,0-10.999-2.852-10.999-7.129c0-3.22,5.146-6.818,14.24-7.747
		c2.168-0.223,8.214-1.115,8.214-1.115L200.022,49.811z"/>
	<g>
		<path d="M17.396,86.461v1.658h2.661v1.174h-2.661v2.736H16.08v-6.742h4.441v1.174H17.396z"/>
		<path d="M26.259,92.03l-0.397-1.193h-2.396l-0.407,1.193h-1.374l2.453-6.742h1.032l2.462,6.742H26.259z M24.687,87.276
			l-0.852,2.453h1.676L24.687,87.276z"/>
		<path d="M31.571,92.087c-0.72,0-1.326-0.247-1.818-0.739c-0.293-0.293-0.474-0.635-0.549-1.014s-0.113-0.938-0.113-1.676
			s0.038-1.297,0.113-1.676c0.076-0.389,0.256-0.721,0.549-1.014c0.493-0.492,1.099-0.738,1.818-0.738
			c1.297,0,2.254,0.758,2.481,2.131h-1.335c-0.142-0.578-0.502-0.957-1.137-0.957c-0.359,0-0.644,0.113-0.842,0.351
			c-0.275,0.294-0.332,0.597-0.332,1.903s0.057,1.61,0.332,1.904c0.199,0.236,0.483,0.35,0.842,0.35
			c0.635,0,0.995-0.379,1.137-0.957h1.335C33.825,91.33,32.859,92.087,31.571,92.087z"/>
		<path d="M38.891,92.087c-1.383,0-2.481-0.938-2.481-2.368v-4.432h1.316v4.385c0,0.776,0.455,1.24,1.165,1.24
			s1.174-0.464,1.174-1.24v-4.385h1.307v4.432C41.372,91.149,40.274,92.087,38.891,92.087z"/>
		<path d="M44.165,92.03v-6.742h1.316v5.568h3.059v1.174H44.165z"/>
		<path d="M52.564,86.461v5.568h-1.316v-5.568h-1.762v-1.174h4.839v1.174H52.564z"/>
		<path d="M59.107,89.264v2.766h-1.307v-2.766l-2.027-3.977h1.43l1.26,2.718l1.241-2.718h1.43L59.107,89.264z"/>
		<path d="M71.067,91.348c-0.473,0.474-1.051,0.739-1.818,0.739s-1.354-0.266-1.828-0.739c-0.682-0.682-0.663-1.524-0.663-2.689
			c0-1.164-0.019-2.008,0.663-2.689c0.473-0.474,1.061-0.738,1.828-0.738s1.345,0.265,1.818,0.738
			c0.682,0.682,0.673,1.525,0.673,2.689C71.74,89.824,71.749,90.667,71.067,91.348z M70.092,86.765
			c-0.189-0.218-0.483-0.36-0.843-0.36s-0.663,0.143-0.853,0.36c-0.256,0.284-0.322,0.597-0.322,1.894s0.066,1.61,0.322,1.895
			c0.189,0.218,0.493,0.359,0.853,0.359s0.653-0.142,0.843-0.359c0.256-0.284,0.332-0.598,0.332-1.895S70.348,87.049,70.092,86.765z
			"/>
		<path d="M75.536,86.461v1.658h2.661v1.174h-2.661v2.736H74.22v-6.742h4.441v1.174H75.536z"/>
		<path d="M87.098,92.087c-0.72,0-1.326-0.247-1.818-0.739c-0.294-0.293-0.474-0.635-0.55-1.014s-0.113-0.938-0.113-1.676
			s0.038-1.297,0.113-1.676c0.076-0.389,0.256-0.721,0.55-1.014c0.492-0.492,1.098-0.738,1.818-0.738
			c1.297,0,2.253,0.758,2.481,2.131h-1.335c-0.142-0.578-0.502-0.957-1.136-0.957c-0.36,0-0.644,0.113-0.843,0.351
			c-0.275,0.294-0.332,0.597-0.332,1.903s0.057,1.61,0.332,1.904c0.199,0.236,0.483,0.35,0.843,0.35
			c0.634,0,0.994-0.379,1.136-0.957h1.335C89.352,91.33,88.386,92.087,87.098,92.087z"/>
		<path d="M95.743,91.348c-0.473,0.474-1.051,0.739-1.818,0.739c-0.767,0-1.354-0.266-1.828-0.739
			c-0.682-0.682-0.663-1.524-0.663-2.689c0-1.164-0.019-2.008,0.663-2.689c0.474-0.474,1.061-0.738,1.828-0.738
			c0.768,0,1.345,0.265,1.818,0.738c0.682,0.682,0.673,1.525,0.673,2.689C96.416,89.824,96.425,90.667,95.743,91.348z
			 M94.768,86.765c-0.19-0.218-0.483-0.36-0.843-0.36s-0.663,0.143-0.852,0.36c-0.256,0.284-0.322,0.597-0.322,1.894
			s0.066,1.61,0.322,1.895c0.189,0.218,0.492,0.359,0.852,0.359s0.653-0.142,0.843-0.359c0.255-0.284,0.332-0.598,0.332-1.895
			S95.023,87.049,94.768,86.765z"/>
		<path d="M103.499,92.03V88.1l-1.288,2.557h-0.89l-1.297-2.557v3.93h-1.316v-6.742h1.297l1.762,3.646l1.752-3.646h1.297v6.742
			H103.499z"/>
		<path d="M112.504,92.03V88.1l-1.288,2.557h-0.89l-1.297-2.557v3.93h-1.316v-6.742h1.297l1.762,3.646l1.752-3.646h1.297v6.742
			H112.504z"/>
		<path d="M119.094,92.087c-1.383,0-2.481-0.938-2.481-2.368v-4.432h1.316v4.385c0,0.776,0.455,1.24,1.165,1.24
			c0.71,0,1.174-0.464,1.174-1.24v-4.385h1.307v4.432C121.575,91.149,120.477,92.087,119.094,92.087z"/>
		<path d="M128.544,92.03l-2.671-4.139v4.139h-1.316v-6.742h1.174l2.671,4.129v-4.129h1.316v6.742H128.544z"/>
		<path d="M132.805,92.03v-6.742h1.316v6.742H132.805z"/>
		<path d="M138.894,92.087c-0.72,0-1.326-0.247-1.818-0.739c-0.294-0.293-0.474-0.635-0.55-1.014s-0.113-0.938-0.113-1.676
			s0.038-1.297,0.113-1.676c0.076-0.389,0.256-0.721,0.55-1.014c0.492-0.492,1.098-0.738,1.818-0.738
			c1.297,0,2.253,0.758,2.481,2.131h-1.335c-0.142-0.578-0.502-0.957-1.137-0.957c-0.359,0-0.644,0.113-0.842,0.351
			c-0.275,0.294-0.332,0.597-0.332,1.903s0.057,1.61,0.332,1.904c0.199,0.236,0.483,0.35,0.842,0.35
			c0.635,0,0.995-0.379,1.137-0.957h1.335C141.147,91.33,140.182,92.087,138.894,92.087z"/>
		<path d="M147.757,92.03l-0.398-1.193h-2.396l-0.407,1.193h-1.373l2.453-6.742h1.032l2.462,6.742H147.757z M146.185,87.276
			l-0.853,2.453h1.677L146.185,87.276z"/>
		<path d="M152.728,86.461v5.568h-1.316v-5.568h-1.761v-1.174h4.839v1.174H152.728z"/>
		<path d="M157.263,92.03v-6.742h1.316v6.742H157.263z"/>
		<path d="M165.37,91.348c-0.474,0.474-1.052,0.739-1.818,0.739s-1.354-0.266-1.827-0.739c-0.683-0.682-0.663-1.524-0.663-2.689
			c0-1.164-0.02-2.008,0.663-2.689c0.473-0.474,1.061-0.738,1.827-0.738s1.345,0.265,1.818,0.738
			c0.682,0.682,0.672,1.525,0.672,2.689C166.042,89.824,166.051,90.667,165.37,91.348z M164.394,86.765
			c-0.188-0.218-0.482-0.36-0.843-0.36c-0.359,0-0.662,0.143-0.852,0.36c-0.256,0.284-0.322,0.597-0.322,1.894
			s0.066,1.61,0.322,1.895c0.189,0.218,0.492,0.359,0.852,0.359c0.36,0,0.654-0.142,0.843-0.359
			c0.256-0.284,0.331-0.598,0.331-1.895S164.65,87.049,164.394,86.765z"/>
		<path d="M172.509,92.03l-2.671-4.139v4.139h-1.316v-6.742h1.175l2.67,4.129v-4.129h1.316v6.742H172.509z"/>
		<path d="M176.249,93.592v-2.906h1.354v1.865L176.249,93.592z"/>
		<path d="M188.096,92.03l-0.398-1.193h-2.396l-0.407,1.193h-1.374l2.453-6.742h1.032l2.462,6.742H188.096z M186.524,87.276
			l-0.853,2.453h1.676L186.524,87.276z"/>
		<path d="M194.829,92.03l-1.316-2.689h-0.948v2.689h-1.316v-6.742h2.643c1.373,0,2.188,0.938,2.188,2.064
			c0,0.947-0.578,1.534-1.231,1.771l1.505,2.906H194.829z M193.805,86.461h-1.241v1.781h1.241c0.577,0,0.956-0.369,0.956-0.891
			S194.382,86.461,193.805,86.461z"/>
		<path d="M201.911,86.461v5.568h-1.316v-5.568h-1.762v-1.174h4.84v1.174H201.911z"/>
		<path d="M213.615,92.03l-0.398-1.193h-2.396l-0.407,1.193h-1.373l2.453-6.742h1.032l2.462,6.742H213.615z M212.042,87.276
			l-0.852,2.453h1.675L212.042,87.276z"/>
		<path d="M220.375,92.03l-2.671-4.139v4.139h-1.316v-6.742h1.174l2.671,4.129v-4.129h1.316v6.742H220.375z"/>
		<path d="M227.903,91.386c-0.444,0.445-1.079,0.644-1.78,0.644h-2.434v-6.742h2.434c0.701,0,1.336,0.199,1.78,0.644
			c0.758,0.758,0.682,1.687,0.682,2.699C228.584,89.644,228.661,90.628,227.903,91.386z M226.985,86.878
			c-0.228-0.274-0.53-0.417-0.985-0.417h-0.994v4.395H226c0.455,0,0.758-0.143,0.985-0.416c0.246-0.304,0.284-0.787,0.284-1.81
			S227.231,87.182,226.985,86.878z"/>
		<path d="M237.353,86.461v5.568h-1.316v-5.568h-1.762v-1.174h4.84v1.174H237.353z"/>
		<path d="M241.13,92.03v-6.742h4.442v1.174h-3.126v1.582h2.662v1.174h-2.662v1.639h3.126v1.174H241.13z"/>
		<path d="M250.061,92.087c-0.721,0-1.326-0.247-1.818-0.739c-0.294-0.293-0.475-0.635-0.55-1.014
			c-0.076-0.379-0.113-0.938-0.113-1.676s0.037-1.297,0.113-1.676c0.075-0.389,0.256-0.721,0.55-1.014
			c0.492-0.492,1.098-0.738,1.818-0.738c1.296,0,2.253,0.758,2.48,2.131h-1.334c-0.143-0.578-0.502-0.957-1.137-0.957
			c-0.359,0-0.645,0.113-0.843,0.351c-0.274,0.294-0.331,0.597-0.331,1.903s0.057,1.61,0.331,1.904
			c0.198,0.236,0.483,0.35,0.843,0.35c0.635,0,0.995-0.379,1.137-0.957h1.334C252.314,91.33,251.348,92.087,250.061,92.087z"/>
		<path d="M258.412,92.03v-2.822h-2.281v2.822h-1.318v-6.742h1.318v2.756h2.281v-2.756h1.316v6.742H258.412z"/>
		<path d="M266.234,92.03l-2.672-4.139v4.139h-1.316v-6.742h1.176l2.67,4.129v-4.129h1.316v6.742H266.234z"/>
		<path d="M274.008,91.348c-0.473,0.474-1.051,0.739-1.818,0.739s-1.354-0.266-1.828-0.739c-0.682-0.682-0.662-1.524-0.662-2.689
			c0-1.164-0.02-2.008,0.662-2.689c0.475-0.474,1.061-0.738,1.828-0.738s1.346,0.265,1.818,0.738
			c0.682,0.682,0.672,1.525,0.672,2.689C274.68,89.824,274.689,90.667,274.008,91.348z M273.033,86.765
			c-0.189-0.218-0.484-0.36-0.844-0.36s-0.662,0.143-0.854,0.36c-0.254,0.284-0.32,0.597-0.32,1.894s0.066,1.61,0.32,1.895
			c0.191,0.218,0.494,0.359,0.854,0.359s0.654-0.142,0.844-0.359c0.256-0.284,0.33-0.598,0.33-1.895S273.289,87.049,273.033,86.765z
			"/>
		<path d="M276.971,92.03v-6.742h1.316v5.568h3.059v1.174H276.971z"/>
		<path d="M287.199,91.348c-0.475,0.474-1.053,0.739-1.818,0.739c-0.768,0-1.355-0.266-1.828-0.739
			c-0.682-0.682-0.664-1.524-0.664-2.689c0-1.164-0.018-2.008,0.664-2.689c0.473-0.474,1.061-0.738,1.828-0.738
			c0.766,0,1.344,0.265,1.818,0.738c0.682,0.682,0.672,1.525,0.672,2.689C287.871,89.824,287.881,90.667,287.199,91.348z
			 M286.223,86.765c-0.189-0.218-0.482-0.36-0.842-0.36c-0.361,0-0.664,0.143-0.854,0.36c-0.256,0.284-0.322,0.597-0.322,1.894
			s0.066,1.61,0.322,1.895c0.189,0.218,0.492,0.359,0.854,0.359c0.359,0,0.652-0.142,0.842-0.359
			c0.256-0.284,0.332-0.598,0.332-1.895S286.479,87.049,286.223,86.765z"/>
		<path d="M294.129,91.32c-0.52,0.53-1.145,0.768-1.902,0.768c-0.721,0-1.326-0.247-1.818-0.739
			c-0.293-0.293-0.475-0.635-0.549-1.014c-0.076-0.379-0.113-0.938-0.113-1.676s0.037-1.297,0.113-1.676
			c0.074-0.389,0.256-0.721,0.549-1.014c0.492-0.492,1.098-0.738,1.818-0.738c1.533,0,2.357,0.984,2.539,2.159h-1.326
			c-0.162-0.653-0.561-0.985-1.213-0.985c-0.35,0-0.635,0.123-0.844,0.36c-0.246,0.312-0.32,0.558-0.32,1.894
			c0,1.326,0.057,1.592,0.32,1.904c0.199,0.236,0.484,0.35,0.844,0.35c0.389,0,0.701-0.123,0.938-0.379
			c0.199-0.227,0.303-0.53,0.303-0.899v-0.256h-1.24V88.28h2.547v0.984C294.773,90.25,294.594,90.828,294.129,91.32z"/>
		<path d="M299.621,89.264v2.766h-1.307v-2.766l-2.027-3.977h1.432l1.258,2.718l1.242-2.718h1.43L299.621,89.264z"/>
	</g>
</g>
</svg>
