<?xml version="1.0" encoding="utf-8"?>
<!-- Generator: Adobe Illustrator 16.0.0, SVG Export Plug-In . SVG Version: 6.00 Build 0)  -->
<!DOCTYPE svg PUBLIC "-//W3C//DTD SVG 1.1//EN" "http://www.w3.org/Graphics/SVG/1.1/DTD/svg11.dtd">
<svg version="1.1" id="Layer_1" xmlns="http://www.w3.org/2000/svg" xmlns:xlink="http://www.w3.org/1999/xlink" x="0px" y="0px"
	 width="1169.5px" height="180.756px" viewBox="0 0 1169.5 180.756" enable-background="new 0 0 1169.5 180.756"
	 xml:space="preserve">
<text transform="matrix(1 0 0 1 0 141.7529)" font-family="'DINPro-Bold'" font-size="110">WHAT IS</text>
<text transform="matrix(1 0 0 1 1064.7451 166.7559)" font-family="'DINPro-Bold'" font-size="212">?</text>
<g>
	<g>
		<polygon points="1020.438,22.497 1020.438,54.198 1052.527,54.227 1052.527,22.497 		"/>
		<path d="M1020.478,100.518c0,0.402,0,40.632,0,46.539c0,9.101,2.154,15.543,8.986,16.289l22.796-0.025l0.269-62.711l-29.153-0.028
			C1021.048,100.58,1020.563,100.534,1020.478,100.518z"/>
		<path d="M1019.063,101.249v-0.017C1019.063,101.231,1019.022,101.231,1019.063,101.249z"/>
		<path d="M535.698,22.524c-7.675,0.092-13.855-0.355-20.597,3.383c-18.794,10.418-20.088,33.778-20.327,52.013h-31.643v46.321
			h31.617v39.18h73.584V124.23l35.81-0.032V77.817l-32.872,0.039c-1.701-0.538-2.344-2.066-2.344-3.697
			c0-2.392,1.98-4.328,4.45-4.328c0,0,30.479-0.035,30.766,0.024V22.489C600.896,22.489,540.923,22.46,535.698,22.524z"/>
		<path d="M702.452,112.371c0,0-2.491-3.544-5.668-8.249c-3.183-4.718-9.706-13.449-26.659-13.449
			c-16.938,0-25.853,16.338-25.853,34.122c0,17.788,7.291,38.561,7.291,38.561h46.155l10.285-17.153l34.111,17.239l1.335,0.037
			l10.101-0.037l-0.018-74.511L702.452,112.371z"/>
		<path d="M612.473,56.753v-34.33h0.087h0.06h141.002l-0.035,63.198c0,0-26.837-45.896-75.421-44.514
			c-40.767,0-65.627,16.033-65.678,15.71L612.473,56.753z"/>
	</g>
	<path d="M946.856,150.594c0-4.801,0-36.323,0-50.385h-34.328l0.02-46.021h34.327v-31.69l-184.756-0.043l-0.021,40.471h49.839
		c0,0-0.181-5.279,0.233-8.752c1.478-12.452,31.342-12.708,40.241-5.278c2.393,1.552,1.57,11.557,1.57,11.557
		c-16.457,6.292-41.319,9.85-60.067,14.294c-22.146,5.272-31.837,15.196-31.837,15.196l-0.023,73.349c0,0,186.892,0.05,188.229,0.06
		c0.055,0,0.146,0.002,0.251,0.002C948.196,160.954,946.856,159.18,946.856,150.594z M853.502,119.636
		c0,8.341-8.522,13.479-22.304,13.479c-13.375,0-21.467-5.563-21.467-13.913c0-6.285,10.044-13.307,27.794-15.118
		c4.229-0.439,16.028-2.177,16.028-2.177L853.502,119.636z"/>
</g>
</svg>
