<?xml version="1.0" encoding="utf-8"?>
<!-- Generator: Adobe Illustrator 16.0.0, SVG Export Plug-In . SVG Version: 6.00 Build 0)  -->
<!DOCTYPE svg PUBLIC "-//W3C//DTD SVG 1.1//EN" "http://www.w3.org/Graphics/SVG/1.1/DTD/svg11.dtd">
<svg version="1.1" id="Layer_1" xmlns="http://www.w3.org/2000/svg" xmlns:xlink="http://www.w3.org/1999/xlink" x="0px" y="0px"
	 width="1200px" height="319px" viewBox="0 0 1200 319" enable-background="new 0 0 1200 319" xml:space="preserve">
<text transform="matrix(1 0 0 1 13.542 175.7529)" font-family="'DINPro-Bold'" font-size="110">WHAT IS</text>
<text transform="matrix(1 0 0 1 23.144 276.7188)" fill="#959595" font-family="'DINPro-Bold'" font-size="16">#WeAreFCAT | wearefcat.ca | @FCATatSFU</text>
<text transform="matrix(1 0 0 1 1078.2871 200.7559)" font-family="'DINPro-Bold'" font-size="212">?</text>
<g>
	<g>
		<polygon points="1033.981,56.497 1033.981,88.198 1066.069,88.227 1066.069,56.497 		"/>
		<path d="M1034.019,134.518c0,0.402,0,40.632,0,46.538c0,9.101,2.155,15.543,8.987,16.29l22.796-0.025l0.268-62.712l-29.153-0.028
			C1034.59,134.58,1034.105,134.534,1034.019,134.518z"/>
		<path d="M1032.605,135.249v-0.017C1032.605,135.231,1032.564,135.231,1032.605,135.249z"/>
		<path d="M549.24,56.524c-7.675,0.092-13.855-0.355-20.596,3.383c-18.794,10.418-20.088,33.778-20.328,52.013h-31.642v46.321
			h31.617v39.18h73.584V158.23l35.81-0.032v-46.381l-32.873,0.039c-1.701-0.538-2.343-2.066-2.343-3.697
			c0-2.392,1.98-4.328,4.45-4.328c0,0,30.479-0.035,30.766,0.024V56.489C614.438,56.489,554.465,56.46,549.24,56.524z"/>
		<path d="M715.994,146.371c0,0-2.491-3.544-5.668-8.249c-3.182-4.718-9.706-13.449-26.659-13.449
			c-16.938,0-25.853,16.338-25.853,34.122c0,17.788,7.292,38.561,7.292,38.561h46.155l10.285-17.154l34.111,17.24l1.335,0.037
			l10.101-0.037l-0.018-74.512L715.994,146.371z"/>
		<path d="M626.015,90.753v-34.33h0.087h0.059h141.002l-0.035,63.198c0,0-26.837-45.896-75.421-44.514
			c-40.767,0-65.627,16.033-65.678,15.71L626.015,90.753z"/>
	</g>
	<path d="M960.398,184.594c0-4.801,0-36.323,0-50.385H926.07l0.02-46.021h34.327v-31.69l-184.756-0.043l-0.021,40.471h49.839
		c0,0-0.181-5.279,0.233-8.752c1.477-12.452,31.342-12.708,40.241-5.278c2.393,1.552,1.57,11.557,1.57,11.557
		c-16.457,6.292-41.319,9.85-60.067,14.294c-22.146,5.272-31.837,15.196-31.837,15.196l-0.023,73.349c0,0,186.891,0.05,188.229,0.06
		c0.055,0,0.147,0.002,0.251,0.002C961.738,194.954,960.398,193.18,960.398,184.594z M867.044,153.636
		c0,8.34-8.522,13.478-22.304,13.478c-13.375,0-21.467-5.563-21.467-13.913c0-6.285,10.044-13.307,27.794-15.118
		c4.229-0.439,16.029-2.177,16.029-2.177L867.044,153.636z"/>
</g>
<g>
	<text transform="matrix(1 0 0 1 1001.7305 233.749)"><tspan x="0" y="0" fill="#939598" font-family="'DINPro-Bold'" font-size="16">DISCOVER THE ANSWER</tspan><tspan x="12.984" y="23" fill="#939598" font-family="'DINPro-Bold'" font-size="24">sfu.ca/fcat/ugc</tspan></text>
	<text transform="matrix(1 0 0 1 975.0439 276.7188)" fill="#939598" font-family="'DINPro-Bold'" font-size="16">Celebrating 5 Years of FCAT</text>
</g>
</svg>
