<?xml version="1.0" encoding="utf-8"?>
<!-- Generator: Adobe Illustrator 16.0.0, SVG Export Plug-In . SVG Version: 6.00 Build 0)  -->
<!DOCTYPE svg PUBLIC "-//W3C//DTD SVG 1.1//EN" "http://www.w3.org/Graphics/SVG/1.1/DTD/svg11.dtd">
<svg version="1.1" id="Layer_1" xmlns="http://www.w3.org/2000/svg" xmlns:xlink="http://www.w3.org/1999/xlink" x="0px" y="0px"
	 width="748.583px" height="243px" viewBox="0 0 748.583 243" enable-background="new 0 0 748.583 243" xml:space="preserve">
<text transform="matrix(1 0 0 1 229.5269 55.7339)" font-family="'DINPro-Bold'" font-size="67.6302">WHAT   IS</text>
<text transform="matrix(1 0 0 1 186.3135 188.75)"><tspan x="0" y="0" font-family="'DINPro-Bold'" font-size="14.2775">#WeAreFCAT</tspan><tspan x="2.392" y="17.133" fill="#939598" font-family="'DINPro-Bold'" font-size="14.2775">wearefcat.ca</tspan><tspan x="1.956" y="34.266" fill="#939598" font-family="'DINPro-Bold'" font-size="14.2775">@FCATatSFU</tspan></text>
<text transform="matrix(1 0 0 1 483.7319 197.2549)"><tspan x="0" y="0" fill="#939598" font-family="'DINPro-Bold'" font-size="7.1387">DISCOVER THE ANSWER</tspan><tspan x="0.966" y="13.526" fill="#939598" font-family="'DINPro-Bold'" font-size="11.2717">sfu.ca/fcat/ugc</tspan><tspan x="0.756" y="24.798" fill="#939598" font-family="'DINPro-Bold'" font-size="6.0867">Celebrating 5 Years of FCAT</tspan></text>
<text transform="matrix(1 0 0 1 349.9033 226.5488)" font-family="'DINPro-Bold'" font-size="97.3876">?</text>
<g>
	<g>
		<polygon points="535.381,63.584 535.381,82.9 554.934,82.918 554.934,63.584 		"/>
		<path d="M535.403,111.123c0,0.246,0,24.758,0,28.356c0,5.546,1.314,9.473,5.477,9.926l13.89-0.015l0.164-38.212l-17.763-0.017
			C535.752,111.161,535.456,111.132,535.403,111.123z"/>
		<path d="M534.542,111.568v-0.011C534.542,111.558,534.517,111.558,534.542,111.568z"/>
		<path d="M240.021,63.601c-4.675,0.056-8.442-0.217-12.548,2.061c-11.452,6.347-12.24,20.581-12.387,31.692h-19.28v28.224h19.265
			v23.874h44.835v-23.881l21.819-0.019V97.292l-20.03,0.023c-1.036-0.328-1.428-1.259-1.428-2.253c0-1.455,1.208-2.637,2.713-2.637
			c0,0,18.571-0.021,18.746,0.016V63.579C279.746,63.579,243.205,63.562,240.021,63.601z"/>
		<path d="M341.626,118.346c0,0-1.518-2.16-3.453-5.026c-1.939-2.875-5.914-8.196-16.245-8.196
			c-10.321,0-15.751,9.957-15.751,20.791c0,10.838,4.443,23.496,4.443,23.496h28.123l6.267-10.452l20.785,10.505l0.813,0.022
			l6.154-0.022l-0.011-45.402L341.626,118.346z"/>
		<path d="M286.802,84.457V63.54h0.051h0.036h85.916l-0.022,38.508c0,0-16.352-27.966-45.954-27.123
			c-24.842,0-39.988,9.769-40.02,9.572L286.802,84.457z"/>
	</g>
	<path d="M490.546,141.634c0-2.924,0-22.131,0-30.7h-20.917l0.012-28.041h20.916V63.584l-112.575-0.027l-0.012,24.66h30.368
		c0,0-0.11-3.216,0.143-5.333c0.899-7.587,19.097-7.743,24.52-3.216c1.457,0.946,0.956,7.042,0.956,7.042
		c-10.028,3.834-25.177,6.002-36.601,8.709c-13.493,3.212-19.397,9.259-19.397,9.259l-0.015,44.693c0,0,113.876,0.028,114.691,0.035
		c0.033,0,0.089,0.002,0.153,0.002C491.363,147.947,490.546,146.867,490.546,141.634z M433.664,122.772
		c0,5.082-5.193,8.212-13.59,8.212c-8.15,0-13.08-3.39-13.08-8.478c0-3.829,6.119-8.108,16.935-9.212
		c2.577-0.266,9.767-1.326,9.767-1.326L433.664,122.772z"/>
</g>
</svg>
