<?xml version="1.0" encoding="utf-8"?>
<!-- Generator: Adobe Illustrator 16.0.0, SVG Export Plug-In . SVG Version: 6.00 Build 0)  -->
<!DOCTYPE svg PUBLIC "-//W3C//DTD SVG 1.1//EN" "http://www.w3.org/Graphics/SVG/1.1/DTD/svg11.dtd">
<svg version="1.1" id="Layer_1" xmlns="http://www.w3.org/2000/svg" xmlns:xlink="http://www.w3.org/1999/xlink" x="0px" y="0px"
	 width="1169.5px" height="180.756px" viewBox="0 0 1169.5 180.756" enable-background="new 0 0 1169.5 180.756"
	 xml:space="preserve">
<g enable-background="new    ">
	<path d="M75.9,141.753H63.14L48.73,94.232l-14.41,47.521H21.56l-20.9-78.32h15.95l12.1,49.391l14.3-49.391h11.44l14.3,49.391
		l12.21-49.391h15.95L75.9,141.753z"/>
	<path d="M148.5,141.753v-32.78h-26.51v32.78h-15.29v-78.32h15.29v32.01h26.51v-32.01h15.29v78.32H148.5z"/>
	<path d="M226.599,141.753l-4.62-13.86h-27.83l-4.73,13.86h-15.95l28.49-78.32h11.99l28.6,78.32H226.599z M208.339,86.532
		l-9.9,28.49h19.47L208.339,86.532z"/>
	<path d="M275.548,77.072v64.681h-15.29V77.072h-20.46v-13.64h56.21v13.64H275.548z"/>
	<path d="M333.957,141.753v-78.32h15.29v78.32H333.957z"/>
	<path d="M389.066,142.413c-11.88,0-20.9-2.53-28.6-10.34l9.9-9.9c4.95,4.95,11.66,6.6,18.92,6.6c9.02,0,13.86-3.409,13.86-9.68
		c0-2.75-0.77-5.06-2.42-6.6c-1.54-1.431-3.3-2.2-6.93-2.75l-9.46-1.32c-6.71-0.99-11.66-3.08-15.18-6.49
		c-3.74-3.74-5.61-8.8-5.61-15.4c0-13.97,10.34-23.76,27.28-23.76c10.78,0,18.59,2.64,25.3,9.13l-9.68,9.57
		c-4.95-4.73-10.89-5.39-16.06-5.39c-8.14,0-12.1,4.51-12.1,9.899c0,1.98,0.66,4.07,2.31,5.61c1.54,1.43,4.07,2.64,7.26,3.08
		l9.24,1.32c7.15,0.989,11.66,2.97,14.96,6.05c4.18,3.96,6.05,9.68,6.05,16.609C418.106,133.833,405.456,142.413,389.066,142.413z"
		/>
</g>
<g enable-background="new    ">
	<path d="M1157.604,83.438l-15.688,20.776c-2.12,2.757-3.815,7.209-3.815,10.812v4.452h-27.562v-6.36
		c0-9.116,2.544-14.84,8.057-22.048l15.688-20.141c3.392-4.452,6.148-9.541,6.148-14.205c0-9.964-6.572-17.384-17.173-17.384
		c-11.236,0-16.96,7.844-16.96,17.596h-27.562c0-26.288,19.929-42.4,44.521-42.4c23.956,0,44.733,15.477,44.733,42.4
		C1167.992,67.537,1163.539,75.594,1157.604,83.438z M1109.69,166.756V138.56h29.257v28.196H1109.69z"/>
</g>
<g>
	<g>
		<polygon points="1020.438,22.497 1020.438,54.198 1052.527,54.227 1052.527,22.497 		"/>
		<path d="M1020.479,100.519c0,0.401,0,40.631,0,46.539c0,9.101,2.153,15.543,8.985,16.289l22.796-0.025l0.27-62.711l-29.153-0.028
			C1021.048,100.58,1020.562,100.534,1020.479,100.519z"/>
		<path d="M1019.062,101.249v-0.018C1019.062,101.231,1019.021,101.231,1019.062,101.249z"/>
		<path d="M535.698,22.524c-7.675,0.092-13.855-0.355-20.598,3.383c-18.794,10.418-20.088,33.778-20.326,52.013h-31.644v46.321
			h31.617v39.18h73.584v-39.191l35.81-0.031V77.817l-32.872,0.039c-1.7-0.538-2.344-2.066-2.344-3.697
			c0-2.392,1.98-4.328,4.45-4.328c0,0,30.479-0.035,30.766,0.024V22.489C600.896,22.489,540.923,22.46,535.698,22.524z"/>
		<path d="M702.452,112.371c0,0-2.491-3.544-5.668-8.249c-3.184-4.719-9.706-13.449-26.659-13.449
			c-16.938,0-25.854,16.338-25.854,34.122c0,17.788,7.291,38.562,7.291,38.562h46.155l10.285-17.153l34.111,17.239l1.335,0.037
			l10.101-0.037l-0.018-74.511L702.452,112.371z"/>
		<path d="M612.473,56.753v-34.33h0.087h0.061h141.002l-0.035,63.198c0,0-26.837-45.896-75.421-44.514
			c-40.767,0-65.627,16.033-65.678,15.71L612.473,56.753z"/>
	</g>
	<path d="M946.855,150.594c0-4.801,0-36.323,0-50.385h-34.327l0.02-46.021h34.327v-31.69l-184.756-0.043l-0.021,40.471h49.84
		c0,0-0.182-5.279,0.232-8.752c1.479-12.452,31.342-12.708,40.241-5.278c2.393,1.552,1.57,11.557,1.57,11.557
		c-16.457,6.292-41.319,9.85-60.067,14.294c-22.146,5.272-31.837,15.196-31.837,15.196l-0.023,73.349
		c0,0,186.893,0.05,188.229,0.061c0.055,0,0.146,0.002,0.251,0.002C948.196,160.954,946.855,159.181,946.855,150.594z
		 M853.502,119.636c0,8.342-8.521,13.479-22.304,13.479c-13.375,0-21.468-5.563-21.468-13.913c0-6.285,10.045-13.307,27.795-15.118
		c4.229-0.438,16.027-2.177,16.027-2.177L853.502,119.636z"/>
</g>
</svg>
